<svg xmlns="http://www.w3.org/2000/svg" viewBox="0 0 64 64"><defs><radialGradient id="g" cx="40%" cy="35%" r="70%"><stop offset="0" stop-color="#e2553a"/><stop offset="1" stop-color="#8f2414"/></radialGradient></defs><path fill="url(#g)" d="M32 3c3 0 4 3 7 3.5s6-1.5 8 .5 0 5 2 7.5 5.5 2 6.5 5-2 4.5-1.5 7.5 3.5 5 2.5 8-4.5 3-6 5.5-1 6-3.5 7.5-5.5-.5-8 1-3.5 4.5-7 4.5-4-3-7-3.5-6 1.5-8-.5 0-5-2-7.5-5.5-2-6.5-5 2-4.5 1.5-7.5S3.5 33 4.5 30s4.5-3 6-5.5 1-6 3.5-7.5 5.5.5 8-1S29 3 32 3z"/><circle cx="32" cy="32" r="17" fill="none" stroke="#f3c9b8" stroke-opacity=".45" stroke-width="1.5"/><path d="M26 25.5c0-3 2.7-4.5 6-4.5s6 1.6 6 4.2c0 5.8-12 4.3-12 10.6 0 2.9 2.8 4.7 6.1 4.7 3.4 0 6-1.7 6-4.6" fill="none" stroke="#fbe3d6" stroke-width="2.6" stroke-linecap="round"/></svg>
